# xmcd
#
# Track frame offsets: 
#        150
#        13405
#        26905
#        46108
#        59075
#        72745
#        85253
#        104563
#        119855
#        132825
#        148320
#        161923
#        179863
#        193520
#        207148
#        222190
#
# Disc length: 3179 seconds
#
# Revision: 1
# Processed by: cddbd v1.5PL3 Copyright (c) Steve Scherf et al.
# Submitted via: ExactAudioCopy v0.90b4
#
DISCID=0f0c6910
DTITLE=Ronnie Milsap - The Legendary Ronnie Milsap
DYEAR=1988
DGENRE=Country
TTITLE0=(I'd Be) A Legend In My Time
TTITLE1=She Came Here For The Change
TTITLE2=The Future Is Not What It Used To Be
TTITLE3=I'm Still Not Over You
TTITLE4=Clap Your Hands
TTITLE5=I'll Leave This World Loving You
TTITLE6=Santa Barbara
TTITLE7=Too Soon To Know
TTITLE8=What Goes On When The Sun Goes Down
TTITLE9=You've Still Got A Place In My Heart
TTITLE10=Long Distance Memory
TTITLE11=What A Difference You've Made In My Life
TTITLE12=(After Sweet Memories) Play Born To Lose Again
TTITLE13=Remember To Remind Me (I'm Leaving)
TTITLE14=Who'll Turn Out The Lights (In Your World Tonight)
TTITLE15=It Was Almost Like A Song
EXTD=YEAR: 1988 ID3G: 2
EXTT0=
EXTT1=
EXTT2=
EXTT3=
EXTT4=
EXTT5=
EXTT6=
EXTT7=
EXTT8=
EXTT9=
EXTT10=
EXTT11=
EXTT12=
EXTT13=
EXTT14=
EXTT15=
PLAYORDER=
